<svg xmlns="http://www.w3.org/2000/svg" width="85" height="85" viewBox="0 0 85 85">
  <g id="Group_1205313" data-name="Group 1205313" transform="translate(-756 -6736)">
    <g id="Group_1205281" data-name="Group 1205281" transform="translate(-0.051 -1370)">
      <g id="Group_1205088" data-name="Group 1205088" transform="translate(-368.73 -3053)">
        <g id="Group_1205081" data-name="Group 1205081" transform="translate(104.781 807.291)">
          <circle id="Ellipse_13386" data-name="Ellipse 13386" cx="42.5" cy="42.5" r="42.5" transform="translate(1020 10351.709)" fill="#fd9826"/>
        </g>
      </g>
    </g>
    <g id="costo2" transform="translate(804.931 6742.002)">
      <g id="Group_1205312" data-name="Group 1205312" transform="translate(-38.931 9.838)">
        <g id="Group_1205310" data-name="Group 1205310" transform="translate(0 5.695)">
          <circle id="Ellipse_13453" data-name="Ellipse 13453" cx="14.557" cy="14.557" r="14.557" transform="translate(0 20.583) rotate(-45)" fill="#fdcd56"/>
          <circle id="Ellipse_13454" data-name="Ellipse 13454" cx="10.972" cy="10.972" r="10.972" transform="translate(9.616 9.612)" fill="#f5b945"/>
        </g>
        <path id="Path_1246231" data-name="Path 1246231" d="M29.188,339.929H27.247V326.194a.22.22,0,0,0-.22-.22H21.71a.22.22,0,0,0-.22.22v13.736H19.55a.22.22,0,0,0-.144.385l4.819,4.2a.219.219,0,0,0,.289,0l4.819-4.2a.22.22,0,0,0-.144-.385Z" transform="translate(-12.933 -292.011)" fill="#f76c82" fill-rule="evenodd"/>
        <path id="Path_1246232" data-name="Path 1246232" d="M220.144,167.072a14.555,14.555,0,0,1,0,19.528,16.091,16.091,0,0,1,0-19.528Z" transform="translate(-188.76 -150.556)" fill="#f5b945" fill-rule="evenodd"/>
        <path id="Path_1246233" data-name="Path 1246233" d="M218.2,196.978a10.972,10.972,0,0,1,0,12.961,16.13,16.13,0,0,1,0-12.961Z" transform="translate(-188.76 -177.179)" fill="#daa33b" fill-rule="evenodd"/>
        <g id="Group_1205311" data-name="Group 1205311" transform="translate(23.586 5.698)">
          <circle id="Ellipse_13455" data-name="Ellipse 13455" cx="14.557" cy="14.557" r="14.557" transform="translate(0 20.583) rotate(-45)" fill="#fdcd56"/>
          <circle id="Ellipse_13456" data-name="Ellipse 13456" cx="10.972" cy="10.972" r="10.972" transform="translate(9.618 9.61)" fill="#f5b945"/>
        </g>
        <path id="Path_1246234" data-name="Path 1246234" d="M410.743,21.292H408.8V35.027a.22.22,0,0,1-.22.22h-5.317a.22.22,0,0,1-.22-.22V21.292h-1.94a.22.22,0,0,1-.144-.385l4.819-4.2a.219.219,0,0,1,.289,0l4.819,4.2a.22.22,0,0,1-.144.385Z" transform="translate(-352.596 -16.65)" fill="#c6ea94" fill-rule="evenodd"/>
      </g>
      <path id="Path_1246235" data-name="Path 1246235" d="M51.632,38.8a3.575,3.575,0,0,0-3.719-3.4,2.045,2.045,0,0,1-2.182-1.865,2.045,2.045,0,0,1,2.182-1.866,3.207,3.207,0,0,1,1.975.871.769.769,0,0,0,1.285-.844,4.26,4.26,0,0,0-2.5-1.468l-.023-.97a.769.769,0,0,0-1.537.036l.022.913A3.5,3.5,0,0,0,44.2,33.532a3.575,3.575,0,0,0,3.718,3.4,1.889,1.889,0,1,1,0,3.732,2.491,2.491,0,0,1-1.94-.923.769.769,0,0,0-1.055,1.119A4.244,4.244,0,0,0,47.16,42.14l.02.84a.768.768,0,0,0,.768.75h.019a.769.769,0,0,0,.75-.786l-.02-.817A3.494,3.494,0,0,0,51.632,38.8Zm6.939-7.614a11.634,11.634,0,0,1,1.084,4.932,11.73,11.73,0,1,1-8.318-11.233.768.768,0,0,1-.447,1.47,10.2,10.2,0,1,0,6.287,5.478.769.769,0,0,1,1.394-.647Zm3.13,4.932A13.788,13.788,0,1,1,47.914,22.329a13.654,13.654,0,0,1,5.505,1.144v4.962a.77.77,0,0,0,.769.769h5.658A13.707,13.707,0,0,1,61.7,36.118ZM35.174,44.626a15.229,15.229,0,0,1-1.109-1.95A11.762,11.762,0,0,1,20.9,47.352a.769.769,0,0,1,.447-1.471,10.222,10.222,0,0,0,12-5,15.33,15.33,0,0,1,0-9.533A10.206,10.206,0,0,0,15.062,40.4a.769.769,0,1,1-1.395.647A11.744,11.744,0,0,1,30.616,26.2a11.777,11.777,0,0,1,3.449,3.356,15.336,15.336,0,0,1,1.109-1.95,13.789,13.789,0,0,0-22.78,15.423h5.657a.768.768,0,0,1,.769.769v4.961a13.661,13.661,0,0,0,5.506,1.144,13.837,13.837,0,0,0,10.849-5.28Zm-16.647,13.9-3.354,2.924-3.354-2.924h.476a.769.769,0,0,0,.769-.769V44.57h4.219V57.756a.769.769,0,0,0,.769.769ZM53.712,13.71h.475a.769.769,0,0,1,.769.768V27.667h4.22V14.479a.768.768,0,0,1,.768-.768h.475l-3.353-2.924Zm9.527,22.407A15.319,15.319,0,0,1,36.123,45.9a15.383,15.383,0,0,1-11.8,5.546,15.2,15.2,0,0,1-5.506-1.019v6.564h1.758a.768.768,0,0,1,.5,1.347l-5.4,4.714a.77.77,0,0,1-1.01,0l-5.4-4.714a.768.768,0,0,1,.505-1.347h1.758V44.545a15.324,15.324,0,0,1,24.6-18.206,15.325,15.325,0,0,1,17.3-4.528V15.247H51.661a.768.768,0,0,1-.505-1.347l5.405-4.712a.765.765,0,0,1,1.01,0l5.4,4.712a.768.768,0,0,1-.505,1.347H60.713V27.691a15.236,15.236,0,0,1,2.526,8.427ZM20.607,33.532A3.5,3.5,0,0,1,23.544,30.2l-.022-.913a.769.769,0,0,1,1.537-.036l.023.97a4.26,4.26,0,0,1,2.5,1.468.769.769,0,0,1-1.285.844,3.206,3.206,0,0,0-1.975-.871,2.044,2.044,0,0,0-2.181,1.866A2.044,2.044,0,0,0,24.325,35.4a3.575,3.575,0,0,1,3.718,3.4,3.494,3.494,0,0,1-2.935,3.327l.02.817a.768.768,0,0,1-.75.786H24.36a.768.768,0,0,1-.768-.75l-.021-.84a4.242,4.242,0,0,1-2.241-1.278.769.769,0,0,1,1.055-1.119,2.492,2.492,0,0,0,1.941.923,1.889,1.889,0,1,0,0-3.732,3.575,3.575,0,0,1-3.719-3.4Z" transform="translate(-42.669)" fill-rule="evenodd"/>
    </g>
  </g>
</svg>
