<svg xmlns="http://www.w3.org/2000/svg" width="85" height="85" viewBox="0 0 85 85">
  <g id="Group_1205001" data-name="Group 1205001" transform="translate(-1020.051 -5226)">
    <circle id="Ellipse_13372" data-name="Ellipse 13372" cx="42.5" cy="42.5" r="42.5" transform="translate(1020.051 5226)" fill="#b7a8f1"/>
    <g id="buscar" transform="translate(1042.052 5244.598)">
      <g id="Group_1204999" data-name="Group 1204999" transform="translate(0.741 0.742)">
        <path id="Path_1245294" data-name="Path 1245294" d="M0,0H3.718V5.275H0Z" transform="translate(33.952 33.251) rotate(-45)" fill="#e6e2e6"/>
        <path id="Path_1245295" data-name="Path 1245295" d="M0,0H3.718V5.275H0Z" transform="translate(33.952 33.251) rotate(-45)" fill="#ecdaec"/>
        <path id="Path_1245296" data-name="Path 1245296" d="M0,0H1.77V5.275H0Z" transform="translate(33.952 33.251) rotate(-45)" fill="#e2cbe2"/>
        <path id="Path_1245297" data-name="Path 1245297" d="M8,9.391A1.391,1.391,0,0,1,9.391,8h23.4l8.616,8.616V52.592a1.391,1.391,0,0,1-1.391,1.391H9.391A1.391,1.391,0,0,1,8,52.592Z" transform="translate(-8 -8)" fill="#f9f6f6"/>
        <path id="Path_1245298" data-name="Path 1245298" d="M40.02,472.391H9.391A1.391,1.391,0,0,1,8,471v1.669a1.391,1.391,0,0,0,1.391,1.391H40.02a1.391,1.391,0,0,0,1.391-1.391V471A1.391,1.391,0,0,1,40.02,472.391Z" transform="translate(-8 -428.076)" fill="#ecdaec"/>
        <g id="Group_1204997" data-name="Group 1204997" transform="translate(16.822)">
          <path id="Path_1245299" data-name="Path 1245299" d="M276.836,16.616h7.225L275.445,8v7.225A1.391,1.391,0,0,0,276.836,16.616Z" transform="translate(-267.473 -8)" fill="#e2cbe2"/>
          <path id="Path_1245300" data-name="Path 1245300" d="M276.836,16.616h7.225L275.445,8v7.225A1.391,1.391,0,0,0,276.836,16.616Z" transform="translate(-267.473 -8)" fill="#e2cbe2"/>
          <circle id="Ellipse_13409" data-name="Ellipse 13409" cx="11.541" cy="11.541" r="11.541" transform="translate(0 13.485)" fill="#e2cbe2"/>
        </g>
        <path id="Path_1245301" data-name="Path 1245301" d="M209.155,276.264a11.541,11.541,0,0,1-19.671-7.326,11.541,11.541,0,1,0,23.021,0A11.5,11.5,0,0,1,209.155,276.264Z" transform="translate(-172.632 -244.747)" fill="#dab9d8"/>
        <circle id="Ellipse_13410" data-name="Ellipse 13410" cx="8.356" cy="8.356" r="8.356" transform="translate(20.007 16.669)" fill="#ffe27a"/>
        <path id="Path_1245302" data-name="Path 1245302" d="M238.077,274.011a8.355,8.355,0,0,1-14.222-5.074,8.355,8.355,0,1,0,16.627,0A8.32,8.32,0,0,1,238.077,274.011Z" transform="translate(-203.806 -244.746)" fill="#f9cf58"/>
        <path id="Path_1245303" data-name="Path 1245303" d="M272.808,249.924a1.456,1.456,0,0,1-1.018-.414l-1.917-1.865a1.461,1.461,0,1,1,2.037-2.1l.871.847,2.618-2.685a1.461,1.461,0,0,1,2.092,2.04l-3.637,3.729A1.456,1.456,0,0,1,272.808,249.924Z" transform="translate(-245.193 -221.461)" fill="#98db7c"/>
        <path id="Path_1245304" data-name="Path 1245304" d="M277.5,250.21l-3.637,3.729a1.461,1.461,0,0,1-2.065.027l-1.917-1.865a1.47,1.47,0,0,1-.18-.212,1.46,1.46,0,0,0,.18,1.881l1.917,1.865a1.461,1.461,0,0,0,2.065-.027l3.637-3.729a1.461,1.461,0,0,0,.152-1.855A1.47,1.47,0,0,1,277.5,250.21Z" transform="translate(-245.203 -227.586)" fill="#82d361"/>
        <path id="Path_1245305" data-name="Path 1245305" d="M412.612,372.946l-3.666,3.666L413.333,381A2.592,2.592,0,0,0,417,377.333Z" transform="translate(-371.775 -339.113)" fill="#ff4755"/>
        <path id="Path_1245306" data-name="Path 1245306" d="M414.583,403.378l-4.385-4.385-1.252,1.252,4.387,4.387a2.594,2.594,0,0,0,4.184-.738A2.593,2.593,0,0,1,414.583,403.378Z" transform="translate(-371.775 -362.745)" fill="#fc2b3a"/>
        <g id="Group_1204998" data-name="Group 1204998" transform="translate(4.755 12.797)">
          <path id="Path_1245307" data-name="Path 1245307" d="M63.188,150.8H60.146a.86.86,0,0,1-.86-.86V146.9a.86.86,0,0,1,.86-.86h3.042a.86.86,0,0,1,.86.86v3.042a.86.86,0,0,1-.86.86Z" transform="translate(-59.286 -146.039)" fill="#98db7c"/>
          <path id="Path_1245308" data-name="Path 1245308" d="M63.188,255.963H60.146a.86.86,0,0,1-.86-.86v-3.042a.86.86,0,0,1,.86-.86h3.042a.86.86,0,0,1,.86.86V255.1a.86.86,0,0,1-.86.86Z" transform="translate(-59.286 -241.452)" fill="#98db7c"/>
          <path id="Path_1245309" data-name="Path 1245309" d="M63.188,363.26H60.146a.86.86,0,0,1-.86-.86v-3.042a.86.86,0,0,1,.86-.86h3.042a.86.86,0,0,1,.86.86V362.4a.86.86,0,0,1-.86.86Z" transform="translate(-59.286 -338.801)" fill="#98db7c"/>
        </g>
        <path id="Path_1245310" data-name="Path 1245310" d="M63.188,170.988H60.146a.86.86,0,0,1-.86-.86V171.8a.86.86,0,0,0,.86.86h3.042a.86.86,0,0,0,.86-.86v-1.669a.86.86,0,0,1-.86.86Z" transform="translate(-54.531 -155.097)" fill="#82d361"/>
        <path id="Path_1245311" data-name="Path 1245311" d="M63.188,276.149H60.146a.86.86,0,0,1-.86-.86v1.669a.86.86,0,0,0,.86.86h3.042a.86.86,0,0,0,.86-.86v-1.669a.86.86,0,0,1-.86.86Z" transform="translate(-54.531 -250.509)" fill="#82d361"/>
        <path id="Path_1245312" data-name="Path 1245312" d="M63.188,383.446H60.146a.86.86,0,0,1-.86-.86v1.669a.86.86,0,0,0,.86.86h3.042a.86.86,0,0,0,.86-.86v-1.669a.86.86,0,0,1-.86.86Z" transform="translate(-54.531 -347.859)" fill="#82d361"/>
        <path id="Path_1245313" data-name="Path 1245313" d="M275.445,85.937v1.669A1.391,1.391,0,0,0,276.836,89h7.225V87.328h-7.225A1.391,1.391,0,0,1,275.445,85.937Z" transform="translate(-250.651 -78.712)" fill="#ecdaec"/>
      </g>
      <g id="Group_1205000" data-name="Group 1205000" transform="translate(-0.001 0)">
        <path id="Path_1245314" data-name="Path 1245314" d="M266.069,243.8a2.145,2.145,0,0,0,1.547-.652l3.644-3.736a2.161,2.161,0,0,0-3.094-3.017l-2.138,2.192-.375-.364a2.161,2.161,0,1,0-3.013,3.1l1.921,1.868A2.15,2.15,0,0,0,266.069,243.8Zm-2.471-4.564a.768.768,0,0,1,1.085-.015l.873.849a.7.7,0,0,0,.985-.013l2.624-2.69a.767.767,0,0,1,1.1,1.071l-3.644,3.736a.771.771,0,0,1-1.084.014l-1.921-1.868A.768.768,0,0,1,263.6,239.237Z" transform="translate(-237.699 -213.889)"/>
        <path id="Path_1245315" data-name="Path 1245315" d="M219.15,193.884a.7.7,0,0,0-1.113.839,9.186,9.186,0,0,0,.834.958,9.063,9.063,0,1,0-2.227-3.648.7.7,0,0,0,1.327-.424,7.682,7.682,0,1,1,1.884,3.086A7.8,7.8,0,0,1,219.15,193.884Z" transform="translate(-196.167 -163.498)"/>
        <path id="Path_1245316" data-name="Path 1245316" d="M46.507,38.5l-4.4-4.4a.7.7,0,0,0-.985,0l-.027.027-1.692-1.691a12.24,12.24,0,0,0,1.948-5.893.7.7,0,0,0-1.391-.088A10.858,10.858,0,0,1,29.128,36.632h-.066A10.862,10.862,0,1,1,39.815,23.844a.7.7,0,0,0,1.372-.246,12.269,12.269,0,0,0-6.314-8.653V9.329a.705.705,0,0,0-.2-.493L26.035.2a.706.706,0,0,0-.493-.2H2.089A2.093,2.093,0,0,0,0,2.09V7.946a.7.7,0,0,0,1.394,0V2.09a.7.7,0,0,1,.7-.7H24.845V7.936a2.093,2.093,0,0,0,2.09,2.09h6.544v4.287a12.311,12.311,0,0,0-4.228-.8l-.021,0H13.674a.7.7,0,1,0,0,1.393h9.755a12.212,12.212,0,0,0-2.779,2H13.674a.7.7,0,1,0,0,1.393H19.4a12.127,12.127,0,0,0-2.287,4.981H13.674a.7.7,0,1,0,0,1.393h3.232q-.048.545-.049,1.1,0,.454.033.9H13.674a.7.7,0,1,0,0,1.393h3.4a12.126,12.126,0,0,0,2.327,5.18H13.674a.7.7,0,1,0,0,1.393h6.979a12.211,12.211,0,0,0,2.775,1.992H13.674a.7.7,0,1,0,0,1.393H29.118a12.319,12.319,0,0,0,4.361-.8v8.148a.7.7,0,0,1-.7.7H2.089a.7.7,0,0,1-.7-.7V10.733a.7.7,0,0,0-1.394,0V45.377a2.093,2.093,0,0,0,2.09,2.09H32.782a2.093,2.093,0,0,0,2.09-2.09V36.6q.466-.248.915-.538l1.691,1.691a.7.7,0,0,0-.027,1.012l4.4,4.4A3.294,3.294,0,0,0,46.507,38.5ZM26.935,8.633a.7.7,0,0,1-.7-.7V2.379l6.255,6.254Zm9.989,26.592q.446-.369.864-.785t.785-.864l1.54,1.54-1.649,1.649Zm8.6,6.947a1.91,1.91,0,0,1-2.689,0l-3.9-3.9,2.689-2.688,3.9,3.9A1.91,1.91,0,0,1,45.521,42.172Z" transform="translate(0.001 0)"/>
        <path id="Path_1245317" data-name="Path 1245317" d="M52.951,144.474H56a1.56,1.56,0,0,0,1.559-1.558v-3.048A1.56,1.56,0,0,0,56,138.31H52.951a1.56,1.56,0,0,0-1.559,1.558v3.048A1.56,1.56,0,0,0,52.951,144.474Zm-.165-4.606a.165.165,0,0,1,.165-.165H56a.165.165,0,0,1,.165.165v3.048a.165.165,0,0,1-.165.165H52.951a.165.165,0,0,1-.165-.165Z" transform="translate(-46.628 -125.488)"/>
        <path id="Path_1245318" data-name="Path 1245318" d="M51.393,248.284a1.56,1.56,0,0,0,1.559,1.558H56a1.56,1.56,0,0,0,1.559-1.558v-3.048A1.56,1.56,0,0,0,56,243.678H52.951a1.56,1.56,0,0,0-1.559,1.558Zm1.394-3.048a.165.165,0,0,1,.165-.165H56a.165.165,0,0,1,.165.165v3.048a.165.165,0,0,1-.165.165H52.951a.165.165,0,0,1-.165-.165Z" transform="translate(-46.628 -221.087)"/>
        <path id="Path_1245319" data-name="Path 1245319" d="M51.393,355.791a1.56,1.56,0,0,0,1.559,1.558H56a1.56,1.56,0,0,0,1.559-1.558v-3.048A1.56,1.56,0,0,0,56,351.185H52.951a1.56,1.56,0,0,0-1.559,1.558Zm1.394-3.048a.165.165,0,0,1,.165-.165H56a.165.165,0,0,1,.165.165v3.048a.165.165,0,0,1-.165.165H52.951a.165.165,0,0,1-.165-.165Z" transform="translate(-46.628 -318.627)"/>
      </g>
    </g>
  </g>
</svg>
